<?xml version="1.0" encoding="utf-8"?>

<!-- Uploaded to: SVG Repo, www.svgrepo.com, Generator: SVG Repo Mixer Tools -->
<svg width="700px" height="700px" viewBox="-3 -7 32 32" fill="none" xmlns="http://www.w3.org/2000/svg">
<g id="style=fill">
<g id="comment">
<path id="Subtract" fill-rule="evenodd" clip-rule="evenodd" d="M11.9862 0.763672C6.07454 0.763672 1.23621 5.36133 1.23621 11.1034C1.23621 13.5057 2.10188 15.7237 3.55066 17.4735C5.46882 19.8566 8.48271 21.3843 11.8522 21.4238L11.8878 21.4367C11.9902 21.4735 12.1385 21.5265 12.3236 21.5916C12.6936 21.7216 13.2115 21.9001 13.8035 22.0941C14.9799 22.4797 16.4767 22.9358 17.6892 23.1894C18.303 23.3178 18.9306 23.1718 19.4096 22.8608C19.8872 22.5507 20.3019 22.0126 20.3019 21.3173C20.3019 20.9046 20.1354 20.4987 19.9732 20.1857C19.8007 19.8529 19.5794 19.5251 19.371 19.2448C19.2691 19.1076 19.1676 18.9782 19.0724 18.8609C21.3193 16.9815 22.7362 14.2061 22.7362 11.1034C22.7362 7.55126 20.8865 4.4319 18.073 2.58609C16.3321 1.4227 14.2426 0.763672 11.9862 0.763672ZM18.3637 6.03728C18.1546 5.67972 17.6953 5.55937 17.3377" fill="#b0becd"/>
</g>
</g>
</svg>